<svg width="30" height="30" viewBox="0 0 30 30" fill="none" xmlns="http://www.w3.org/2000/svg">
<path d="M25.6106 9.75639C26.2575 9.75639 26.8779 10.0134 27.3353 10.4708C27.7927 10.9282 28.0497 11.5486 28.0497 12.1955V17.0737C28.0497 17.7206 27.7927 18.341 27.3353 18.7984C26.8779 19.2558 26.2575 19.5128 25.6106 19.5128H24.3154C24.0181 21.8706 22.8706 24.0388 21.0882 25.6106C19.3058 27.1824 17.0111 28.0497 14.6346 28.0497V25.6106C16.5753 25.6106 18.4365 24.8397 19.8088 23.4674C21.181 22.0951 21.952 20.2339 21.952 18.2933V10.9759C21.952 9.03527 21.181 7.17408 19.8088 5.80181C18.4365 4.42955 16.5753 3.65862 14.6346 3.65862C12.694 3.65862 10.8328 4.42955 9.46051 5.80181C8.08824 7.17408 7.31731 9.03527 7.31731 10.9759V19.5128H3.65865C3.01176 19.5128 2.39136 19.2558 1.93394 18.7984C1.47652 18.341 1.21954 17.7206 1.21954 17.0737V12.1955C1.21954 11.5486 1.47652 10.9282 1.93394 10.4708C2.39136 10.0134 3.01176 9.75639 3.65865 9.75639H4.95382C5.25143 7.39886 6.39908 5.23096 8.18145 3.65944C9.96382 2.08793 12.2584 1.22083 14.6346 1.22083C17.0109 1.22083 19.3054 2.08793 21.0878 3.65944C22.8702 5.23096 24.0178 7.39886 24.3154 9.75639H25.6106ZM9.46373 19.2506L10.7565 17.1823C11.9188 17.9104 13.2631 18.2955 14.6346 18.2933C16.0062 18.2955 17.3505 17.9104 18.5128 17.1823L19.8055 19.2506C18.2558 20.2216 16.4634 20.7352 14.6346 20.7324C12.8059 20.7352 11.0135 20.2216 9.46373 19.2506Z" fill="#F9995D"/>
</svg>
