<svg width="79" height="16" viewBox="0 0 79 16" fill="none" xmlns="http://www.w3.org/2000/svg">
<path d="M13.8517 1.14146L13.1712 4.06107H8.49542L5.81728 15.6298H2.04154L4.71968 4.06107H1.0407e-05L0.680521 1.14146H13.8517ZM12.1312 15.6298L15.7533 -3.88464e-05H19.4851L17.8387 7.1563L17.4655 7.68315C17.6558 7.06849 17.9412 6.51969 18.3217 6.03675C18.7022 5.55381 19.1778 5.16599 19.7485 4.8733C20.3193 4.5806 20.9705 4.43426 21.7023 4.43426C22.434 4.43426 23.056 4.60256 23.5682 4.93915C24.095 5.27575 24.4609 5.75138 24.6658 6.36603C24.8853 6.98069 24.8999 7.71242 24.7097 8.56123L23.0633 15.6298H19.3315L20.8461 9.15393C20.9779 8.56854 20.9266 8.11487 20.6925 7.79291C20.4583 7.45631 20.0778 7.28801 19.551 7.28801C19.1558 7.28801 18.8046 7.38314 18.4973 7.57339C18.2046 7.749 17.9485 8.01975 17.729 8.38561C17.5241 8.73684 17.3631 9.17588 17.246 9.70273L15.863 15.6298H12.1312ZM31.6986 15.8273C30.6157 15.8273 29.6644 15.6224 28.8449 15.2127C28.0254 14.7883 27.3887 14.2029 26.9351 13.4565C26.4814 12.7101 26.2546 11.8394 26.2546 10.8442C26.2546 9.61492 26.5033 8.52464 27.0009 7.57339C27.5131 6.6075 28.2302 5.8465 29.1522 5.29038C30.0888 4.73427 31.2011 4.45621 32.4889 4.45621C33.5572 4.45621 34.4646 4.6611 35.211 5.07086C35.972 5.466 36.55 6.02943 36.9452 6.76117C37.3403 7.4929 37.5379 8.35634 37.5379 9.3515C37.5379 9.62956 37.5232 9.92225 37.494 10.2296C37.4647 10.5369 37.4062 10.8369 37.3184 11.1296H28.6693V9.11003H34.8817L33.8499 9.68078C33.9085 9.47589 33.9451 9.30028 33.9597 9.15393C33.9743 9.00758 33.9817 8.86856 33.9817 8.73684C33.9817 8.35634 33.9158 8.0417 33.7841 7.79291C33.6524 7.54412 33.4694 7.36119 33.2353 7.24411C33.0011 7.1124 32.7231 7.04654 32.4011 7.04654C31.8743 7.04654 31.4352 7.17094 31.084 7.41973C30.7474 7.66851 30.4767 7.99779 30.2718 8.40756C30.0669 8.8027 29.9205 9.23442 29.8327 9.70273C29.7596 10.171 29.723 10.6247 29.723 11.0638C29.723 11.5321 29.8108 11.9272 29.9864 12.2492C30.1766 12.5711 30.4254 12.8199 30.7328 12.9955C31.0547 13.1565 31.4279 13.237 31.8523 13.237C32.3792 13.237 32.8036 13.1199 33.1255 12.8858C33.4475 12.637 33.6963 12.3296 33.8719 11.9638L36.9452 13.1711C36.6964 13.7273 36.3086 14.2029 35.7817 14.598C35.2695 14.9932 34.6622 15.3005 33.9597 15.52C33.2719 15.7249 32.5182 15.8273 31.6986 15.8273ZM39.8874 15.6298V1.14146H46.934C48.7194 1.1561 50.0365 1.50001 50.8854 2.17321C51.7342 2.83176 52.1586 3.79033 52.1586 5.04891C52.1586 5.86845 51.9171 6.57823 51.4342 7.17825C50.9512 7.76364 50.2122 8.13682 49.217 8.2978V8.31976C50.3292 8.4661 51.1561 8.85392 51.6976 9.48321C52.2537 10.0979 52.5318 10.8442 52.5318 11.7223C52.5318 12.9663 52.0927 13.9321 51.2146 14.62C50.3366 15.2932 49.0194 15.6298 47.2633 15.6298H39.8874ZM43.5314 12.9736H46.6267C47.3145 12.9736 47.8267 12.8345 48.1633 12.5565C48.4999 12.2784 48.6682 11.876 48.6682 11.3491C48.6682 10.8369 48.4999 10.4491 48.1633 10.1857C47.8267 9.90761 47.3145 9.76859 46.6267 9.76859H43.5314V12.9736ZM43.5314 7.06849H46.2754C47.6218 7.06849 48.295 6.54165 48.295 5.48795C48.295 4.43426 47.6218 3.90741 46.2754 3.90741H43.5314V7.06849ZM59.8548 4.43426C61.0109 4.43426 62.0207 4.66109 62.8842 5.11477C63.7622 5.55381 64.4427 6.20505 64.9257 7.06849C65.4233 7.9173 65.6721 8.94173 65.6721 10.1418C65.6721 11.3418 65.4233 12.3736 64.9257 13.237C64.4427 14.0858 63.7622 14.737 62.8842 15.1907C62.0207 15.6298 61.0109 15.8493 59.8548 15.8493C58.7279 15.8493 57.7254 15.6298 56.8474 15.1907C55.9693 14.737 55.2815 14.0858 54.7839 13.237C54.3009 12.3736 54.0595 11.3418 54.0595 10.1418C54.0595 8.94173 54.3009 7.9173 54.7839 7.06849C55.2815 6.20505 55.9693 5.55381 56.8474 5.11477C57.7254 4.66109 58.7279 4.43426 59.8548 4.43426ZM59.8548 7.09045C59.4304 7.09045 59.0645 7.19289 58.7572 7.39777C58.4499 7.60266 58.2157 7.93194 58.0547 8.38561C57.8937 8.83929 57.8133 9.42467 57.8133 10.1418C57.8133 10.8589 57.8937 11.4443 58.0547 11.8979C58.2157 12.337 58.4499 12.6662 58.7572 12.8858C59.0645 13.0906 59.4304 13.1931 59.8548 13.1931C60.2938 13.1931 60.667 13.0906 60.9743 12.8858C61.2817 12.6662 61.5158 12.337 61.6768 11.8979C61.8378 11.4443 61.9183 10.8589 61.9183 10.1418C61.9183 9.42467 61.8378 8.83929 61.6768 8.38561C61.5158 7.93194 61.2817 7.60266 60.9743 7.39777C60.667 7.19289 60.2938 7.09045 59.8548 7.09045ZM70.3981 4.65378L73.0762 9.59297L74.3055 9.48321L78.6301 15.6298H74.3494L71.5835 10.6247H70.2883L66.0955 4.65378H70.3981ZM78.5423 4.65378L74.3933 10.5808L73.0104 10.493L70.1347 15.6298H65.9418L70.3542 9.43931L71.6274 9.61492L74.3494 4.65378H78.5423Z" fill="#2947A9"/>
</svg>
